HIERARCHY
ROOT joint_Root
{
	OFFSET 0.0 0.0 0.0
	CHANNELS 6 Xposition Yposition Zposition Zrotation Xrotation Yrotation 
	JOINT Hips
	{
		OFFSET -0.726466 93.3139 -2.00062
		CHANNELS 6 Xposition Yposition Zposition Zrotation Xrotation Yrotation 
		JOINT Spine
		{
			OFFSET 15.7357 0.0 0.0
			CHANNELS 6 Xposition Yposition Zposition Zrotation Xrotation Yrotation 
			JOINT Chest
			{
				OFFSET 8.98455 -0.406207 0.0
				CHANNELS 6 Xposition Yposition Zposition Zrotation Xrotation Yrotation 
				JOINT Neck
				{
					OFFSET 16.3773 0.0 0.0
					CHANNELS 6 Xposition Yposition Zposition Zrotation Xrotation Yrotation 
					JOINT Head
					{
						OFFSET 6.45672 0.0 0.0
						CHANNELS 6 Xposition Yposition Zposition Zrotation Xrotation Yrotation 
						End Site
						{
							OFFSET 0.0 0.0 0.0
						}
					}
				}
				JOINT Shoulder_L
				{
					OFFSET 12.9942 -0.242716 4.98039
					CHANNELS 6 Xposition Yposition Zposition Zrotation Xrotation Yrotation 
					JOINT UpperArm_L
					{
						OFFSET 5.34809 0.0 0.0
						CHANNELS 6 Xposition Yposition Zposition Zrotation Xrotation Yrotation 
						JOINT LowerArm_L
						{
							OFFSET 24.3286 1.87007e-05 0.0
							CHANNELS 6 Xposition Yposition Zposition Zrotation Xrotation Yrotation 
							JOINT Hand_L
							{
								OFFSET 22.2916 0.0 0.0
								CHANNELS 6 Xposition Yposition Zposition Zrotation Xrotation Yrotation 
								End Site
								{
									OFFSET 0.0 0.0 0.0
								}
							}
						}
					}
				}
				JOINT Shoulder_R
				{
					OFFSET 12.9945 -0.242716 -4.98039
					CHANNELS 6 Xposition Yposition Zposition Zrotation Xrotation Yrotation 
					JOINT UpperArm_R
					{
						OFFSET -5.34813 0.0 0.0
						CHANNELS 6 Xposition Yposition Zposition Zrotation Xrotation Yrotation 
						JOINT LowerArm_R
						{
							OFFSET -24.3289 0.000322201 0.0
							CHANNELS 6 Xposition Yposition Zposition Zrotation Xrotation Yrotation 
							JOINT Hand_R
							{
								OFFSET -22.2915 -0.000108084 0.0
								CHANNELS 6 Xposition Yposition Zposition Zrotation Xrotation Yrotation 
								End Site
								{
									OFFSET 0.0 0.0 0.0
								}
							}
						}
					}
				}
			}
		}
		JOINT UpperLeg_L
		{
			OFFSET -2.19248 -6.46944 0.0
			CHANNELS 6 Xposition Yposition Zposition Zrotation Xrotation Yrotation 
			JOINT LowerLeg_L
			{
				OFFSET 39.0811 0.0 -1.23785e-05
				CHANNELS 6 Xposition Yposition Zposition Zrotation Xrotation Yrotation 
				JOINT Foot_L
				{
					OFFSET 40.9854 0.0 -1.26872e-05
					CHANNELS 6 Xposition Yposition Zposition Zrotation Xrotation Yrotation 
					JOINT Toes_L
					{
						OFFSET 11.7543 0.0 0.0
						CHANNELS 6 Xposition Yposition Zposition Zrotation Xrotation Yrotation 
						End Site
						{
							OFFSET 0.0 0.0 0.0
						}
					}
				}
			}
		}
		JOINT UpperLeg_R
		{
			OFFSET -2.19251 6.46944 0.0
			CHANNELS 6 Xposition Yposition Zposition Zrotation Xrotation Yrotation 
			JOINT LowerLeg_R
			{
				OFFSET -39.0811 -0.00228153 -0.0401928
				CHANNELS 6 Xposition Yposition Zposition Zrotation Xrotation Yrotation 
				JOINT Foot_R
				{
					OFFSET -40.9854 0.0 0.0
					CHANNELS 6 Xposition Yposition Zposition Zrotation Xrotation Yrotation 
					JOINT Toes_R
					{
						OFFSET -11.7543 0.0 0.0
						CHANNELS 6 Xposition Yposition Zposition Zrotation Xrotation Yrotation 
						End Site
						{
							OFFSET 0.0 0.0 0.0
						}
					}
				}
			}
		}
	}
}
MOTION
Frames:	7
Frame Time:	0.0333333
0.000000 0.000000 0.000000 0.000000 0.000000 -0.000000 -2.068110 92.895800 -0.813274 89.208000 -1.489770 2.304770 15.735700 0.000005 -0.000001 89.989200 86.693200 -89.422700 8.984550 -0.406207 -0.000000 -1.151970 -0.045316 1.132090 16.377300 -0.000001 -0.000001 4.289260 -2.146820 0.696179 6.456720 -0.000001 -0.000000 7.510140 -1.894930 -3.996270 12.994200 -0.242716 4.980390 -89.041800 -3.119490 -72.915500 5.348090 -0.000007 -0.000001 -79.550700 -33.115500 -75.895100 24.328600 0.000019 0.000005 9.702020 -1.710610 -99.904200 22.291600 -0.000001 0.000005 16.532200 5.591240 -10.832300 12.994500 -0.242716 -4.980390 87.702900 7.462840 -72.837200 -5.348130 -0.000001 -0.000004 -64.560800 40.866900 -10.629800 -24.328900 0.000322 -0.000009 3.217810 9.197740 -19.383900 -22.291500 -0.000108 -0.000004 6.753600 5.360980 -1.709470 -2.192480 -6.469440 -0.000000 -176.021000 -7.115640 -1.705490 39.081100 -0.000007 -0.000012 -0.063035 0.207042 16.933100 40.985400 -0.000006 -0.000013 -0.997256 4.662860 -63.035800 11.754300 -0.000000 0.000003 -0.000003 -0.000047 -16.579300 -2.192510 6.469440 -0.000001 -179.835000 10.653600 179.775000 -39.081100 -0.002282 -0.040193 -0.049745 0.196685 15.101400 -40.985400 0.000008 0.000006 2.295920 7.117470 -63.088000 -11.754300 -0.000006 -0.000006 -0.005942 -0.070312 -19.434600
0.000000 0.000000 0.000000 0.000000 0.000000 -0.000000 -2.080600 92.897200 -0.811853 89.200000 -1.557510 2.247640 15.735700 0.000005 -0.000001 90.122700 86.697400 -89.555500 8.984550 -0.406207 -0.000000 -1.160530 -0.030032 1.133730 16.377300 -0.000001 -0.000001 4.244150 -2.131990 0.709359 6.456720 -0.000001 -0.000000 7.531960 -1.866170 -4.049600 12.994200 -0.242716 4.980390 -89.047100 -3.098970 -72.897600 5.348090 -0.000007 -0.000001 -79.550400 -33.223100 -75.975600 24.328600 0.000019 0.000005 9.667640 -1.706670 -99.916900 22.291600 -0.000001 0.000005 16.417200 5.590510 -10.791000 12.994500 -0.242716 -4.980390 87.700800 7.467830 -72.833200 -5.348130 -0.000001 -0.000004 -64.348000 40.980600 -10.842400 -24.328900 0.000322 -0.000009 3.201440 9.098620 -19.485200 -22.291500 -0.000108 -0.000004 6.816550 5.361710 -1.731620 -2.192480 -6.469440 -0.000000 -176.015000 -7.183740 -1.758900 39.081100 -0.000007 -0.000012 -0.062562 0.205521 16.930400 40.985400 -0.000006 -0.000013 -1.003060 4.649390 -63.031700 11.754300 -0.000000 0.000003 -0.000002 -0.000025 -16.578500 -2.192510 6.469440 -0.000001 -179.808000 10.643100 179.726000 -39.081100 -0.002282 -0.040193 -0.050693 0.200491 15.080600 -40.985400 0.000008 0.000006 2.306230 7.129300 -63.076600 -11.754300 -0.000006 -0.000006 -0.005955 -0.070426 -19.439300
0.000000 0.000000 0.000000 0.000000 0.000000 -0.000000 -2.087220 92.899200 -0.794921 89.187900 -1.579550 2.203180 15.735700 0.000005 -0.000001 90.160000 86.703800 -89.601000 8.984550 -0.406207 -0.000000 -1.173290 -0.025194 1.117380 16.377300 -0.000001 -0.000001 4.188690 -2.146470 0.717230 6.456720 -0.000001 -0.000000 7.564190 -1.876550 -3.998560 12.994200 -0.242716 4.980390 -89.048600 -3.098890 -72.923400 5.348090 -0.000007 -0.000001 -79.476600 -33.359300 -75.982100 24.328600 0.000019 0.000005 9.577720 -1.689440 -99.910900 22.291600 -0.000001 0.000005 16.181800 5.588940 -10.702200 12.994500 -0.242716 -4.980390 87.700400 7.466760 -72.828000 -5.348130 -0.000001 -0.000004 -64.228500 41.019000 -10.993000 -24.328900 0.000322 -0.000009 3.207870 9.098590 -19.521500 -22.291500 -0.000108 -0.000004 6.834280 5.363120 -1.774880 -2.192480 -6.469440 -0.000000 -176.003000 -7.183970 -1.780040 39.081100 -0.000007 -0.000012 -0.063241 0.208029 16.909100 40.985400 -0.000006 -0.000013 -1.019290 4.600120 -63.031200 11.754300 -0.000000 0.000003 -0.000002 -0.000025 -16.578500 -2.192510 6.469440 -0.000001 -179.777000 10.630600 179.728000 -39.081100 -0.002282 -0.040193 -0.048152 0.191864 15.020300 -40.985400 0.000008 0.000006 2.315810 7.141670 -63.065500 -11.754300 -0.000006 -0.000006 -0.006186 -0.072514 -19.524500
0.000000 0.000000 0.000000 0.000000 0.000000 -0.000000 -2.093700 92.896500 -0.781697 89.195100 -1.622200 2.198260 15.735700 0.000005 -0.000001 90.212700 86.700700 -89.666200 8.984550 -0.406207 -0.000000 -1.167170 -0.018096 1.092270 16.377300 -0.000001 -0.000001 4.175520 -2.182880 0.722311 6.456720 -0.000001 -0.000000 7.490860 -1.929940 -3.984340 12.994200 -0.242716 4.980390 -89.051900 -3.081530 -72.889200 5.348090 -0.000007 -0.000001 -79.306000 -33.444400 -75.778700 24.328600 0.000019 0.000005 9.497890 -1.672980 -99.898600 22.291600 -0.000001 0.000005 16.066900 5.588310 -10.666900 12.994500 -0.242716 -4.980390 87.707200 7.449080 -72.837700 -5.348130 -0.000001 -0.000004 -64.163400 40.993300 -11.087700 -24.328900 0.000322 -0.000009 3.209650 9.084940 -19.558400 -22.291500 -0.000108 -0.000004 6.830580 5.362870 -1.767190 -2.192480 -6.469440 -0.000000 -175.993000 -7.242900 -1.759070 39.081100 -0.000007 -0.000012 -0.063357 0.208515 16.901300 40.985400 -0.000006 -0.000013 -1.024510 4.641620 -63.044900 11.754300 -0.000000 0.000003 -0.000001 -0.000008 -16.577800 -2.192510 6.469440 -0.000001 -179.782000 10.523700 179.707000 -39.081100 -0.002282 -0.040193 -0.049390 0.195995 15.055600 -40.985400 0.000008 0.000006 2.312730 7.127510 -63.084900 -11.754300 -0.000006 -0.000006 -0.006134 -0.072044 -19.505300
0.000000 0.000000 0.000000 0.000000 0.000000 -0.000000 -2.100900 92.898700 -0.759956 89.204800 -1.632530 2.145660 15.735700 0.000005 -0.000001 90.228400 86.715100 -89.694800 8.984550 -0.406207 -0.000000 -1.195930 -0.015535 1.066560 16.377300 -0.000001 -0.000001 4.065590 -2.221300 0.723276 6.456720 -0.000001 -0.000000 7.503560 -1.974590 -3.955300 12.994200 -0.242716 4.980390 -89.064200 -3.033850 -72.848100 5.348090 -0.000007 -0.000001 -78.824700 -33.454400 -75.088700 24.328600 0.000019 0.000005 9.164210 -1.636210 -100.037000 22.291600 -0.000001 0.000005 16.125000 5.587250 -10.607700 12.994500 -0.242716 -4.980390 87.699000 7.464570 -72.813600 -5.348130 -0.000001 -0.000004 -64.078200 40.987400 -11.144700 -24.328900 0.000322 -0.000009 3.190770 9.015620 -19.588900 -22.291500 -0.000108 -0.000004 6.857120 5.361150 -1.714710 -2.192480 -6.469440 -0.000000 -176.010000 -7.204390 -1.781340 39.081100 -0.000007 -0.000012 -0.063596 0.209873 16.857800 40.985400 -0.000006 -0.000013 -1.034770 4.603760 -63.033100 11.754300 -0.000000 0.000003 -0.000002 -0.000028 -16.578600 -2.192510 6.469440 -0.000001 -179.779000 10.536200 179.681000 -39.081100 -0.002282 -0.040193 -0.049855 0.198123 15.026600 -40.985400 0.000008 0.000006 2.312410 7.109920 -63.083000 -11.754300 -0.000006 -0.000006 -0.005849 -0.069461 -19.399900
0.000000 0.000000 0.000000 0.000000 0.000000 -0.000000 -2.085260 92.897300 -0.719010 89.213100 -1.663260 2.165970 15.735700 0.000005 -0.000001 90.454500 86.700800 -89.932200 8.984550 -0.406207 -0.000000 -1.167730 0.011623 1.044170 16.377300 -0.000001 -0.000001 3.937000 -2.235820 0.760554 6.456720 -0.000001 -0.000000 7.467230 -1.954600 -3.988150 12.994200 -0.242716 4.980390 -89.092200 -2.948820 -72.880100 5.348090 -0.000007 -0.000001 -77.880800 -33.511700 -73.594500 24.328600 0.000019 0.000005 8.488030 -1.596170 -100.573000 22.291600 -0.000001 0.000005 16.274700 5.586080 -10.543000 12.994500 -0.242716 -4.980390 87.686900 7.496040 -72.796200 -5.348130 -0.000001 -0.000004 -64.027000 40.927100 -11.143800 -24.328900 0.000322 -0.000009 3.195000 9.020830 -19.602600 -22.291500 -0.000108 -0.000004 7.004600 5.360790 -1.703580 -2.192480 -6.469440 -0.000000 -176.020000 -7.269150 -1.711510 39.081100 -0.000007 -0.000012 -0.063234 0.209004 16.833200 40.985400 -0.000006 -0.000013 -1.022480 4.618290 -63.055500 11.754300 -0.000000 0.000003 -0.000003 -0.000039 -16.579000 -2.192510 6.469440 -0.000001 -179.804000 10.466900 179.728000 -39.081100 -0.002282 -0.040193 -0.050077 0.199004 15.022700 -40.985400 0.000008 0.000006 2.296990 7.098600 -63.102300 -11.754300 -0.000006 -0.000006 -0.005856 -0.069517 -19.402200
0.000000 0.000000 0.000000 0.000000 0.000000 -0.000000 -2.087430 92.900300 -0.694777 89.198700 -1.678160 2.146070 15.735700 0.000005 -0.000001 90.477800 86.688100 -89.958900 8.984550 -0.406207 -0.000000 -1.142410 0.014894 1.037540 16.377300 -0.000001 -0.000001 3.770850 -2.233870 0.776598 6.456720 -0.000001 -0.000000 7.422830 -1.954960 -3.977470 12.994200 -0.242716 4.980390 -89.135600 -2.815980 -72.927800 5.348090 -0.000007 -0.000001 -76.111400 -33.517500 -70.824200 24.328600 0.000019 0.000005 7.519020 -1.550520 -101.586000 22.291600 -0.000001 0.000005 16.298500 5.586010 -10.539200 12.994500 -0.242716 -4.980390 87.670200 7.532450 -72.757800 -5.348130 -0.000001 -0.000004 -63.971200 40.879300 -11.165200 -24.328900 0.000322 -0.000009 3.228180 9.108330 -19.616600 -22.291500 -0.000108 -0.000004 6.865000 5.360490 -1.694530 -2.192480 -6.469440 -0.000000 -175.995000 -7.253710 -1.686780 39.081100 -0.000007 -0.000012 -0.063623 0.210873 16.789300 40.985400 -0.000006 -0.000013 -1.028370 4.651080 -63.056100 11.754300 -0.000000 0.000003 -0.000002 -0.000029 -16.578600 -2.192510 6.469440 -0.000001 -179.780000 10.427400 179.763000 -39.081100 -0.002282 -0.040193 -0.049981 0.199691 14.947600 -40.985400 0.000008 0.000006 2.287530 7.044960 -63.081500 -11.754300 -0.000006 -0.000006 -0.005942 -0.070312 -19.434600
